<mxfile host="app.diagrams.net" agent="Mozilla/5.0 (Macintosh; Intel Mac OS X 10_15_7) AppleWebKit/537.36 (KHTML, like Gecko) Chrome/126.0.0.0 YaBrowser/24.7.0.0 Safari/537.36" version="24.7.17">
  <diagram name="Страница — 1" id="7qNGvN3_iCPPj-EwE8H-">
    <mxGraphModel dx="2929" dy="1183" grid="1" gridSize="10" guides="1" tooltips="1" connect="1" arrows="1" fold="1" page="1" pageScale="1" pageWidth="827" pageHeight="1169" math="0" shadow="0">
      <root>
        <mxCell id="0" />
        <mxCell id="1" parent="0" />
        <mxCell id="QsBq326Vf9nGgv4byhzM-5" value="" style="shape=note;whiteSpace=wrap;html=1;backgroundOutline=1;darkOpacity=0.05;" vertex="1" parent="1">
          <mxGeometry x="-280" y="640" width="520" height="310" as="geometry" />
        </mxCell>
        <mxCell id="QsBq326Vf9nGgv4byhzM-6" value="" style="shape=note;whiteSpace=wrap;html=1;backgroundOutline=1;darkOpacity=0.05;" vertex="1" parent="1">
          <mxGeometry x="-280" y="290" width="520" height="230" as="geometry" />
        </mxCell>
        <mxCell id="QsBq326Vf9nGgv4byhzM-15" style="edgeStyle=orthogonalEdgeStyle;rounded=0;orthogonalLoop=1;jettySize=auto;html=1;exitX=0.5;exitY=1;exitDx=0;exitDy=0;entryX=0;entryY=0.5;entryDx=0;entryDy=0;" edge="1" parent="1" source="QsBq326Vf9nGgv4byhzM-7" target="QsBq326Vf9nGgv4byhzM-13">
          <mxGeometry relative="1" as="geometry" />
        </mxCell>
        <mxCell id="QsBq326Vf9nGgv4byhzM-7" value="master" style="rounded=1;whiteSpace=wrap;html=1;" vertex="1" parent="1">
          <mxGeometry x="-170" y="690" width="120" height="60" as="geometry" />
        </mxCell>
        <mxCell id="QsBq326Vf9nGgv4byhzM-8" value="relese" style="rounded=1;whiteSpace=wrap;html=1;" vertex="1" parent="1">
          <mxGeometry x="70" y="690" width="120" height="60" as="geometry" />
        </mxCell>
        <mxCell id="QsBq326Vf9nGgv4byhzM-9" value="master" style="rounded=0;whiteSpace=wrap;html=1;" vertex="1" parent="1">
          <mxGeometry x="-80" y="380" width="120" height="60" as="geometry" />
        </mxCell>
        <mxCell id="QsBq326Vf9nGgv4byhzM-10" value="РФС" style="text;html=1;align=center;verticalAlign=middle;whiteSpace=wrap;rounded=0;" vertex="1" parent="1">
          <mxGeometry x="-270" y="300" width="60" height="30" as="geometry" />
        </mxCell>
        <mxCell id="QsBq326Vf9nGgv4byhzM-11" value="Феникс" style="text;html=1;align=center;verticalAlign=middle;whiteSpace=wrap;rounded=0;" vertex="1" parent="1">
          <mxGeometry x="-280" y="640" width="60" height="30" as="geometry" />
        </mxCell>
        <mxCell id="QsBq326Vf9nGgv4byhzM-16" style="edgeStyle=orthogonalEdgeStyle;rounded=0;orthogonalLoop=1;jettySize=auto;html=1;exitX=1;exitY=0.5;exitDx=0;exitDy=0;entryX=0.5;entryY=1;entryDx=0;entryDy=0;" edge="1" parent="1" source="QsBq326Vf9nGgv4byhzM-13" target="QsBq326Vf9nGgv4byhzM-8">
          <mxGeometry relative="1" as="geometry" />
        </mxCell>
        <mxCell id="QsBq326Vf9nGgv4byhzM-13" value="RFC-123" style="rounded=1;whiteSpace=wrap;html=1;" vertex="1" parent="1">
          <mxGeometry x="-60" y="820" width="120" height="60" as="geometry" />
        </mxCell>
        <mxCell id="QsBq326Vf9nGgv4byhzM-18" style="edgeStyle=orthogonalEdgeStyle;rounded=0;orthogonalLoop=1;jettySize=auto;html=1;exitX=0.5;exitY=0;exitDx=0;exitDy=0;entryX=0.997;entryY=0.423;entryDx=0;entryDy=0;entryPerimeter=0;" edge="1" parent="1" source="QsBq326Vf9nGgv4byhzM-8" target="QsBq326Vf9nGgv4byhzM-9">
          <mxGeometry relative="1" as="geometry" />
        </mxCell>
        <mxCell id="QsBq326Vf9nGgv4byhzM-19" style="edgeStyle=orthogonalEdgeStyle;rounded=0;orthogonalLoop=1;jettySize=auto;html=1;exitX=0;exitY=0.5;exitDx=0;exitDy=0;entryX=0.5;entryY=0;entryDx=0;entryDy=0;" edge="1" parent="1" source="QsBq326Vf9nGgv4byhzM-9" target="QsBq326Vf9nGgv4byhzM-7">
          <mxGeometry relative="1" as="geometry">
            <Array as="points">
              <mxPoint x="-110" y="410" />
            </Array>
          </mxGeometry>
        </mxCell>
      </root>
    </mxGraphModel>
  </diagram>
</mxfile>
